<?xml version="1.0" encoding="UTF-8"?>
<svg version="1.1" xmlns="http://www.w3.org/2000/svg" width="1024" height="1024">
<path d="M0 0 C0.68603302 0.00215515 1.37206604 0.0043103 2.07888794 0.00653076 C30.67854801 0.1507987 55.32209209 9.38526244 76.125 29.25 C99.35065128 53.73897123 107.0220452 87.80469573 106.93554783 120.6611433 C106.93670167 121.75439475 106.93785552 122.84764619 106.93904433 123.97402647 C106.9416851 127.62675808 106.93720981 131.27944535 106.93275452 134.93217468 C106.93319074 137.58154166 106.93402447 140.2309058 106.93534368 142.88027221 C106.93741143 148.63485996 106.9357839 154.38943735 106.93170547 160.1440239 C106.92565795 168.70081598 106.92537083 177.25760156 106.92624746 185.81439539 C106.92755993 200.20990599 106.92422541 214.60541199 106.91823006 229.00092125 C106.9123103 243.25149241 106.90846356 257.50206166 106.90737724 271.75263405 C106.9073085 272.63913985 106.90723976 273.52564565 106.90716894 274.43901527 C106.9068306 278.94124547 106.90652922 283.44347567 106.90624207 287.94570587 C106.90414241 319.82374988 106.89740716 351.70179138 106.88793945 383.57983398 C106.8787531 414.5463052 106.87167043 445.51277574 106.86743164 476.47924805 C106.86730011 477.43399704 106.86716859 478.38874604 106.86703308 479.37242682 C106.86571454 488.96052695 106.86443873 498.54862708 106.86319422 508.13672722 C106.8606581 527.6682847 106.85783684 547.19984213 106.85484314 566.73139954 C106.8546372 568.07840362 106.8546372 568.07840362 106.85442711 569.4526199 C106.84522855 629.40591431 106.82938359 689.35920733 106.8125 749.3125 C107.56665467 749.31136084 108.32080934 749.31022168 109.09781718 749.309048 C153.85747006 749.24182219 198.61711741 749.19039412 243.37681071 749.15930401 C248.75869421 749.15555217 254.1405776 749.15166918 259.52246094 749.14770508 C260.59383605 749.14691815 261.66521116 749.14613122 262.76905218 749.14532044 C280.08584773 749.13228884 297.40261321 749.10864744 314.71939096 749.08104161 C332.50588084 749.05292479 350.29235505 749.0363105 368.07886624 749.03023452 C379.04212435 749.02613106 390.00529745 749.01320024 400.96852937 748.9887506 C408.50022799 748.97281582 416.03188306 748.96811705 423.56359729 748.97199587 C427.9002038 748.97390544 432.23666241 748.97110927 436.57324219 748.95488358 C478.9290363 748.80428945 478.9290363 748.80428945 497.6875 755.5 C498.55624756 755.80260742 499.42499512 756.10521484 500.32006836 756.41699219 C513.60064116 761.22214713 523.92396784 768.31143832 533.8125 778.3125 C534.62589844 779.11558594 535.43929687 779.91867187 536.27734375 780.74609375 C551.62538128 796.72379436 558.24120096 817.77922001 558.125 839.625 C558.12008545 840.72295898 558.1151709 841.82091797 558.11010742 842.95214844 C557.78391362 865.5749434 549.34447783 885.96325233 533.22998047 901.93701172 C511.23234126 923.28298129 481.57541423 928.80942637 451.94584656 928.69345093 C449.99439525 928.69691544 448.0429459 928.70168529 446.09150058 928.70763266 C440.77552316 928.72006368 435.45970896 928.7140085 430.14373124 928.70467401 C424.39239003 928.6978511 418.64107575 928.70838083 412.88973999 928.71661377 C401.6403472 928.72991961 390.39101463 928.72708719 379.14161953 928.71837585 C369.99316404 928.71158628 360.84472537 928.71068808 351.69626808 928.7139473 C350.3916 928.714407 349.08693192 928.71486669 347.74272845 928.71534032 C345.09184815 928.71629955 342.44096785 928.7172722 339.79008756 928.7182581 C315.66709641 928.72686036 291.5441356 928.71796604 267.42114963 928.70223031 C245.43903338 928.68800004 223.4569693 928.68926471 201.47485352 928.70361328 C176.7350481 928.71970822 151.99527192 928.72597417 127.25546199 928.71677649 C124.61370107 928.7158209 121.97194014 928.71487779 119.33017921 928.7139473 C118.03058409 928.71348447 116.73098897 928.71302164 115.39201218 928.71254479 C106.26305536 928.70996175 97.13411713 928.71431116 88.00516319 928.72138596 C76.86758259 928.72982809 65.73006536 928.72746419 54.59249195 928.71154372 C48.91708888 928.70369669 43.24179121 928.70050803 37.56638908 928.71049118 C32.35824064 928.71951334 27.15029403 928.714383 21.94216356 928.69855852 C20.07086323 928.6952422 18.19954539 928.69683255 16.32825657 928.70418589 C-17.40457128 928.82644024 -51.24164452 921.35029893 -76.1875 897.3125 C-97.35257206 875.35011358 -104.36049017 842.49449896 -104.32172108 812.98075008 C-104.32407331 811.75686163 -104.32642554 810.53297317 -104.32884905 809.27199718 C-104.33435063 805.88127781 -104.33541334 802.49061036 -104.33457164 799.09989018 C-104.3347418 795.40830652 -104.34065535 791.71673123 -104.3458125 788.02515179 C-104.3551214 780.70599673 -104.35905766 773.38684771 -104.36133147 766.06768747 C-104.36429805 757.29912676 -104.37299821 748.53057404 -104.38174575 739.76201753 C-104.40257384 718.56754408 -104.41305787 697.37306924 -104.42187535 676.17858794 C-104.42608471 666.14685892 -104.43130635 656.1151305 -104.43655988 646.08340199 C-104.45444979 611.72704505 -104.46944417 577.37068794 -104.47688007 543.01432705 C-104.47735483 540.85803477 -104.47783072 538.70174249 -104.47830774 536.54545021 C-104.47854411 535.47614842 -104.47878049 534.40684662 -104.47902403 533.30514174 C-104.48022519 527.88775399 -104.48144065 522.47036625 -104.48266602 517.05297852 C-104.48290617 515.97789144 -104.48314632 514.90280437 -104.48339374 513.7951389 C-104.49128264 478.95621651 -104.51470618 444.11732822 -104.54722196 409.27842071 C-104.5815558 372.42408506 -104.60123456 335.56976935 -104.60452431 298.71541744 C-104.60494183 294.66584431 -104.60542139 290.61627119 -104.60594749 286.56669807 C-104.60607069 285.56961693 -104.60619388 284.57253579 -104.6063208 283.54524007 C-104.60864851 267.53036158 -104.62428458 251.51552283 -104.64478934 235.50065848 C-104.66509226 219.38714504 -104.67050359 203.27367909 -104.66101871 187.16015523 C-104.65582093 177.60031081 -104.66159927 168.040625 -104.68355338 158.48080355 C-104.69713921 152.07817041 -104.69591641 145.67564549 -104.68315142 139.27301108 C-104.67630604 135.63587286 -104.67540576 131.9990361 -104.69271151 128.36192577 C-104.86298192 90.16779379 -98.56727303 54.99323011 -71.6875 26.4375 C-51.92137888 7.83683414 -26.7306406 -0.15081325 0 0 Z " fill="#2EBAF3" transform="translate(296.1875,63.6875)"/>
<path d="M0 0 C0.68603302 0.00215515 1.37206604 0.0043103 2.07888794 0.00653076 C30.67854801 0.1507987 55.32209209 9.38526244 76.125 29.25 C99.35065128 53.73897123 107.0220452 87.80469573 106.93554783 120.6611433 C106.93670167 121.75439475 106.93785552 122.84764619 106.93904433 123.97402647 C106.9416851 127.62675808 106.93720981 131.27944535 106.93275452 134.93217468 C106.93319074 137.58154166 106.93402447 140.2309058 106.93534368 142.88027221 C106.93741143 148.63485996 106.9357839 154.38943735 106.93170547 160.1440239 C106.92565795 168.70081598 106.92537083 177.25760156 106.92624746 185.81439539 C106.92755993 200.20990599 106.92422541 214.60541199 106.91823006 229.00092125 C106.9123103 243.25149241 106.90846356 257.50206166 106.90737724 271.75263405 C106.9073085 272.63913985 106.90723976 273.52564565 106.90716894 274.43901527 C106.9068306 278.94124547 106.90652922 283.44347567 106.90624207 287.94570587 C106.90414241 319.82374988 106.89740716 351.70179138 106.88793945 383.57983398 C106.8787531 414.5463052 106.87167043 445.51277574 106.86743164 476.47924805 C106.86730011 477.43399704 106.86716859 478.38874604 106.86703308 479.37242682 C106.86571454 488.96052695 106.86443873 498.54862708 106.86319422 508.13672722 C106.8606581 527.6682847 106.85783684 547.19984213 106.85484314 566.73139954 C106.8546372 568.07840362 106.8546372 568.07840362 106.85442711 569.4526199 C106.84522855 629.40591431 106.82938359 689.35920733 106.8125 749.3125 C107.56665467 749.31136084 108.32080934 749.31022168 109.09781718 749.309048 C153.85747006 749.24182219 198.61711741 749.19039412 243.37681071 749.15930401 C248.75869421 749.15555217 254.1405776 749.15166918 259.52246094 749.14770508 C260.59383605 749.14691815 261.66521116 749.14613122 262.76905218 749.14532044 C280.08584773 749.13228884 297.40261321 749.10864744 314.71939096 749.08104161 C332.50588084 749.05292479 350.29235505 749.0363105 368.07886624 749.03023452 C379.04212435 749.02613106 390.00529745 749.01320024 400.96852937 748.9887506 C408.50022799 748.97281582 416.03188306 748.96811705 423.56359729 748.97199587 C427.9002038 748.97390544 432.23666241 748.97110927 436.57324219 748.95488358 C478.9290363 748.80428945 478.9290363 748.80428945 497.6875 755.5 C498.55624756 755.80260742 499.42499512 756.10521484 500.32006836 756.41699219 C513.60064116 761.22214713 523.92396784 768.31143832 533.8125 778.3125 C534.62589844 779.11558594 535.43929687 779.91867187 536.27734375 780.74609375 C551.62538128 796.72379436 558.24120096 817.77922001 558.125 839.625 C558.12008545 840.72295898 558.1151709 841.82091797 558.11010742 842.95214844 C557.78391362 865.5749434 549.34447783 885.96325233 533.22998047 901.93701172 C511.23234126 923.28298129 481.57541423 928.80942637 451.94584656 928.69345093 C449.99439525 928.69691544 448.0429459 928.70168529 446.09150058 928.70763266 C440.77552316 928.72006368 435.45970896 928.7140085 430.14373124 928.70467401 C424.39239003 928.6978511 418.64107575 928.70838083 412.88973999 928.71661377 C401.6403472 928.72991961 390.39101463 928.72708719 379.14161953 928.71837585 C369.99316404 928.71158628 360.84472537 928.71068808 351.69626808 928.7139473 C350.3916 928.714407 349.08693192 928.71486669 347.74272845 928.71534032 C345.09184815 928.71629955 342.44096785 928.7172722 339.79008756 928.7182581 C315.66709641 928.72686036 291.5441356 928.71796604 267.42114963 928.70223031 C245.43903338 928.68800004 223.4569693 928.68926471 201.47485352 928.70361328 C176.7350481 928.71970822 151.99527192 928.72597417 127.25546199 928.71677649 C124.61370107 928.7158209 121.97194014 928.71487779 119.33017921 928.7139473 C118.03058409 928.71348447 116.73098897 928.71302164 115.39201218 928.71254479 C106.26305536 928.70996175 97.13411713 928.71431116 88.00516319 928.72138596 C76.86758259 928.72982809 65.73006536 928.72746419 54.59249195 928.71154372 C48.91708888 928.70369669 43.24179121 928.70050803 37.56638908 928.71049118 C32.35824064 928.71951334 27.15029403 928.714383 21.94216356 928.69855852 C20.07086323 928.6952422 18.19954539 928.69683255 16.32825657 928.70418589 C-17.40457128 928.82644024 -51.24164452 921.35029893 -76.1875 897.3125 C-97.35257206 875.35011358 -104.36049017 842.49449896 -104.32172108 812.98075008 C-104.32407331 811.75686163 -104.32642554 810.53297317 -104.32884905 809.27199718 C-104.33435063 805.88127781 -104.33541334 802.49061036 -104.33457164 799.09989018 C-104.3347418 795.40830652 -104.34065535 791.71673123 -104.3458125 788.02515179 C-104.3551214 780.70599673 -104.35905766 773.38684771 -104.36133147 766.06768747 C-104.36429805 757.29912676 -104.37299821 748.53057404 -104.38174575 739.76201753 C-104.40257384 718.56754408 -104.41305787 697.37306924 -104.42187535 676.17858794 C-104.42608471 666.14685892 -104.43130635 656.1151305 -104.43655988 646.08340199 C-104.45444979 611.72704505 -104.46944417 577.37068794 -104.47688007 543.01432705 C-104.47735483 540.85803477 -104.47783072 538.70174249 -104.47830774 536.54545021 C-104.47854411 535.47614842 -104.47878049 534.40684662 -104.47902403 533.30514174 C-104.48022519 527.88775399 -104.48144065 522.47036625 -104.48266602 517.05297852 C-104.48290617 515.97789144 -104.48314632 514.90280437 -104.48339374 513.7951389 C-104.49128264 478.95621651 -104.51470618 444.11732822 -104.54722196 409.27842071 C-104.5815558 372.42408506 -104.60123456 335.56976935 -104.60452431 298.71541744 C-104.60494183 294.66584431 -104.60542139 290.61627119 -104.60594749 286.56669807 C-104.60607069 285.56961693 -104.60619388 284.57253579 -104.6063208 283.54524007 C-104.60864851 267.53036158 -104.62428458 251.51552283 -104.64478934 235.50065848 C-104.66509226 219.38714504 -104.67050359 203.27367909 -104.66101871 187.16015523 C-104.65582093 177.60031081 -104.66159927 168.040625 -104.68355338 158.48080355 C-104.69713921 152.07817041 -104.69591641 145.67564549 -104.68315142 139.27301108 C-104.67630604 135.63587286 -104.67540576 131.9990361 -104.69271151 128.36192577 C-104.86298192 90.16779379 -98.56727303 54.99323011 -71.6875 26.4375 C-51.92137888 7.83683414 -26.7306406 -0.15081325 0 0 Z M-54.4375 56 C-71.76099576 78.9323325 -72.65637936 106.94714006 -72.57290266 134.4643257 C-72.56520303 138.11609009 -72.57510726 141.76781767 -72.58263266 145.41957664 C-72.59340727 151.80232253 -72.59317655 158.18499212 -72.58549118 164.56774139 C-72.57409367 174.05947143 -72.57997081 183.55113769 -72.5891161 193.04286736 C-72.60487731 209.99993773 -72.60355854 226.95697409 -72.59487936 243.91404766 C-72.58732154 258.75379827 -72.58536779 273.59353644 -72.5889473 288.43328857 C-72.58917645 289.41907675 -72.58940561 290.40486493 -72.58964171 291.42052548 C-72.59057578 295.42253731 -72.59153099 299.42454914 -72.592521 303.42656096 C-72.60169028 340.93982877 -72.59338985 378.45307497 -72.57723031 415.96633944 C-72.56299435 449.26728474 -72.56426827 482.56819562 -72.57861328 515.86914062 C-72.59469021 553.31544078 -72.6010399 590.76172185 -72.59177649 628.20802498 C-72.59081439 632.20258712 -72.58987587 636.19714927 -72.5889473 640.19171143 C-72.58871006 641.17521632 -72.58847283 642.15872122 -72.58822841 643.1720293 C-72.58482137 657.99951811 -72.58879678 672.82699309 -72.59638596 687.65447998 C-72.60497559 704.52031985 -72.60279398 721.38612051 -72.58654372 738.25195551 C-72.57775685 747.68178573 -72.57712794 757.11153098 -72.58848225 766.54135894 C-72.5952389 772.8506031 -72.59096977 779.15977953 -72.57796794 785.4690137 C-72.57087383 789.05669082 -72.56830226 792.6441999 -72.57918589 796.23187137 C-72.65694598 823.91294979 -71.4546374 854.93422568 -51.1875 876.3125 C-35.37067582 891.56976672 -10.10985642 896.49074987 11.11052418 896.44672108 C12.29222127 896.45024942 12.29222127 896.45024942 13.49779102 896.45384905 C16.12368904 896.46047804 18.74953687 896.46008269 21.3754425 896.45967102 C23.28286427 896.46297345 25.19028535 896.46669981 27.09770554 896.4708125 C32.32909042 896.48079744 37.56046383 896.48454363 42.79185688 896.48720181 C48.43835568 896.49111527 54.08484547 896.50069283 59.7313385 896.50941467 C73.36221013 896.52914914 86.99308248 896.53924122 100.62396482 896.54814246 C107.04933567 896.55253009 113.4747057 896.55789565 119.90007591 896.56313133 C141.26994974 896.58014018 162.63982239 896.59465817 184.00970173 896.60188007 C185.39063536 896.60235482 186.77156898 896.60283071 188.15250261 896.60330774 C189.17967671 896.6036623 189.17967671 896.6036623 190.22760181 896.60402403 C193.6967378 896.60522516 197.16587378 896.60644063 200.63500977 896.60766602 C201.32345562 896.60790617 202.01190147 896.60814632 202.72120932 896.60839374 C225.02613136 896.61628102 247.33100014 896.6397027 269.63589893 896.67222196 C293.24576108 896.7065806 316.85558262 896.72623568 340.46547192 896.72952431 C353.32437452 896.73168589 366.18319879 896.74038303 379.04207802 896.76598549 C389.99503619 896.7877434 400.94789702 896.79571786 411.90087435 896.78601871 C417.48310026 896.78148886 423.06512551 896.7832835 428.64732361 896.80278015 C433.77071228 896.82051879 438.89375551 896.8193281 444.0171484 896.80388286 C445.85773873 896.80152294 447.69835367 896.80574503 449.53890661 896.81771151 C472.30298579 896.95639005 494.93551147 893.56735992 511.9609375 877.25390625 C517.1275711 871.86639426 520.15050709 866.24883112 522.8125 859.3125 C523.43125 857.70375 523.43125 857.70375 524.0625 856.0625 C528.10968844 841.22280906 526.4937447 826.26709016 519.625 812.625 C510.41733338 797.27888896 496.77949466 788.87775663 479.93753624 784.17980194 C463.40590747 780.08414388 446.44092792 780.75721391 429.53734875 780.82233071 C424.91312684 780.83564311 420.28894571 780.82550725 415.66471863 780.81822205 C407.67378532 780.80859394 399.68296153 780.8129416 391.69203568 780.8266449 C380.13232182 780.84609616 368.57272977 780.83952862 357.01301257 780.82607108 C338.24434608 780.80454726 319.47570852 780.79776386 300.70703125 780.80322266 C299.58647214 780.80354329 298.46591304 780.80386392 297.3113976 780.80419427 C289.35343158 780.80656856 281.39546579 780.80947455 273.4375 780.8125 C264.32259124 780.81596248 255.20768249 780.81917908 246.09277344 780.82177734 C244.969349 780.82210285 243.84592457 780.82242837 242.68845697 780.82276374 C223.96799183 780.82770279 205.24756685 780.8170467 186.52711427 780.79520559 C174.99127036 780.7825057 163.45559185 780.78396109 151.91975687 780.80365646 C144.02810765 780.81624463 136.13654252 780.81481972 128.24489345 780.80228293 C123.69112255 780.79555973 119.13759702 780.79550024 114.58384895 780.8128643 C110.4170345 780.82865203 106.25064941 780.82614562 102.08384399 780.80901426 C100.575594 780.80609193 99.06731258 780.80996617 97.55910213 780.82127243 C95.51074939 780.83566561 93.46226008 780.8230736 91.41390419 780.80913544 C90.27571192 780.80978485 89.13751966 780.81043426 87.96483672 780.81110334 C83.37972884 780.08587938 80.40059672 778.41201662 77.56678228 774.66561979 C74.2643058 768.96493946 74.25259808 763.43937149 74.31307125 756.99005222 C74.30496381 755.29969305 74.30496381 755.29969305 74.29669258 753.57518521 C74.28341097 749.78952998 74.29866648 746.00452825 74.31370544 742.21888733 C74.31220732 739.48109501 74.30466243 736.74332686 74.29738861 734.0055446 C74.28474583 728.04797952 74.28687195 722.09056223 74.29867744 716.13299751 C74.31614648 707.27345592 74.31064241 698.41403278 74.30030468 689.55448527 C74.28349968 674.64663324 74.28484611 659.73883526 74.29607964 644.8309803 C74.31122429 624.46350323 74.30116758 604.0960944 74.28456045 583.7286213 C74.27686702 574.23750775 74.27046309 564.74639333 74.2644434 555.25527859 C74.26384016 554.30510877 74.26323692 553.35493895 74.2626154 552.37597611 C74.24857702 529.75870794 74.2475415 507.14144173 74.24829102 484.52416992 C74.24833449 483.03979333 74.24833449 483.03979333 74.24837883 481.52542933 C74.24864617 472.50397293 74.24900099 463.48251653 74.24943101 454.46106014 C74.25043225 432.3987632 74.24908721 410.3364667 74.24633789 388.27416992 C74.24615975 386.79264558 74.24615975 386.79264558 74.24597801 385.28119145 C74.24320916 362.72107796 74.23745369 340.16096936 74.22376347 317.60085964 C74.22290267 316.17752374 74.22290267 316.17752374 74.22202448 314.72543358 C74.21624207 305.25055934 74.21003271 295.7756855 74.20314083 286.300812 C74.18847819 265.96129992 74.18254078 245.62183645 74.19419394 225.28232138 C74.20259873 210.44920527 74.20093281 195.61612051 74.18878155 180.78300668 C74.18193817 171.97712878 74.18354424 163.17134566 74.19727788 154.36547535 C74.20565309 148.4743079 74.20309179 142.58320899 74.19187922 136.69204648 C74.18582014 133.34127125 74.18603552 129.99082902 74.19638925 126.64004243 C74.27534272 99.31443702 71.63251526 71.44612345 51.6484375 50.81640625 C34.16556857 35.38042968 13.21464939 30.96825313 -9.61230469 32.10107422 C-27.2385917 33.54820776 -43.06719348 42.68362178 -54.4375 56 Z " fill="#092933" transform="translate(296.1875,63.6875)"/>
<path d="M0 0 C0.33 0 0.66 0 1 0 C1.14695313 1.23492188 1.29390625 2.46984375 1.4453125 3.7421875 C4.06463585 24.12911908 9.09987129 45.57489775 26 59 C54.73397685 78.28201078 89.59139071 75.30410254 122.64278007 75.27610838 C128.15749072 75.27361947 133.67218513 75.28268173 139.18688965 75.29014587 C149.9616674 75.3028336 160.73642017 75.30469415 171.51120414 75.30234561 C180.2738589 75.30055624 189.03650614 75.30232529 197.79916 75.30657005 C199.05041877 75.30716524 200.30167754 75.30776043 201.59085324 75.30837366 C204.13342286 75.30958551 206.67599249 75.31079964 209.21856211 75.31201603 C226.26350698 75.31979084 243.30844917 75.32373099 260.35339546 75.31969929 C261.0182573 75.31954291 261.68311914 75.31938654 262.36812831 75.31922542 C265.73708425 75.31841977 269.10604018 75.31757399 272.4749961 75.31671212 C273.47843488 75.31645549 273.47843488 75.31645549 274.50214515 75.31619367 C275.85493643 75.31584701 277.20772772 75.31549848 278.560519 75.31514808 C299.61702271 75.30978913 320.67348456 75.31773263 341.72998047 75.33618164 C365.44399518 75.35693528 389.15798984 75.36758723 412.87201583 75.36360615 C425.40765412 75.36169808 437.94325426 75.36414357 450.47888565 75.37832069 C461.14606002 75.39026369 471.81317274 75.39160642 482.48034801 75.37953053 C487.91478377 75.3736634 493.3491069 75.37248229 498.783535 75.38453293 C503.77128203 75.39546405 508.75882334 75.39220346 513.74656104 75.37827124 C515.53763362 75.37564416 517.32872272 75.3779272 519.11977901 75.38600711 C528.43314104 75.42506048 537.49005399 74.99941325 546.71438408 73.64457989 C547.52568437 73.5257013 548.33698466 73.40682271 549.17286981 73.28434174 C563.37436317 70.99526449 576.72648778 64.81416089 585.9375 53.5 C590.32939958 47.38496279 593.17819602 41.28721592 595 34 C600.07455296 41.61182944 598.83126477 54.43829875 597.3125 63.25 C593.76227974 77.91931289 585.92310334 89.93588129 572.9765625 97.84765625 C563.9974766 102.68650003 554.98213847 105.09766623 545 107 C544.09518841 107.17733227 543.19037682 107.35466453 542.2581467 107.5373705 C538.5082151 108.06982933 534.83495396 108.13935359 531.05715275 108.12863445 C529.87840099 108.13126401 529.87840099 108.13126401 528.67583606 108.13394669 C526.03859821 108.13860422 523.40141556 108.1361418 520.76417542 108.13371277 C518.85577965 108.13558088 516.94738426 108.13788158 515.03898948 108.14057809 C509.79117019 108.14670279 504.5433668 108.1465617 499.29554474 108.14538372 C493.63682123 108.14517987 487.97810285 108.15069702 482.31938171 108.15544128 C471.22993217 108.16375279 460.14048793 108.16649638 449.05103553 108.16705366 C440.03481065 108.16752872 431.01858753 108.16958297 422.0023632 108.17275429 C400.59828586 108.18012953 379.19421024 108.18627893 357.79013157 108.18575573 C357.10555878 108.18574015 356.42098599 108.18572457 355.71566858 108.18570852 C352.24605411 108.18562542 348.77643964 108.18552637 345.30682517 108.18542381 C344.61776316 108.18540387 343.92870116 108.18538392 343.21875848 108.18536337 C341.82530497 108.18532294 340.43185146 108.18528114 339.03839795 108.18523798 C317.37365507 108.18462565 295.70892785 108.19212373 274.04418945 108.20581055 C249.69565608 108.22118657 225.34713561 108.22976314 200.99859661 108.22884732 C188.110213 108.22851552 175.22184704 108.23125507 162.33346748 108.24202538 C151.35652327 108.25113951 140.37960472 108.25329822 129.40265835 108.24651595 C123.80492885 108.24325497 118.20724856 108.24317877 112.60952377 108.2518692 C107.47772545 108.25975407 102.34601519 108.25828248 97.21421897 108.24958507 C95.36488352 108.24805442 93.51554143 108.24984971 91.66621382 108.25544515 C77.88022585 108.29436963 64.35645404 107.65759888 51 103.875 C50.25580811 103.66544678 49.51161621 103.45589355 48.74487305 103.23999023 C31.95616505 98.19962836 19.83844406 89.11195757 11 74 C6.32480608 65.0045618 3.66299768 55.96784586 2 46 C1.82936035 45.10273193 1.6587207 44.20546387 1.48291016 43.28100586 C-0.15148747 34.0263916 -0.23345454 25.0442616 -0.125 15.6875 C-0.11493778 14.15690698 -0.10581773 12.62630746 -0.09765625 11.09570312 C-0.07592788 7.3969973 -0.04158181 3.69854231 0 0 Z " fill="#2E9DC3" transform="translate(224,852)"/>
<path d="M0 0 C0.804375 0.78375 1.60875 1.5675 2.4375 2.375 C3.38625 3.220625 4.335 4.06625 5.3125 4.9375 C8.16233004 8.56204112 8.07759959 12.28636394 7.859375 16.75390625 C7.05036153 21.78027698 4.51971685 24.42161849 0.8125 27.6875 C-2.78050811 30.24042682 -4.81499067 30.49378123 -9.1875 30.6875 C-17.92733248 31.36703243 -23.12462884 34.70354207 -29.5625 40.375 C-33.27454487 42.23102244 -37.5112305 41.82375601 -41.5625 41.375 C-46.87815158 38.71717421 -50.66486008 35.06791975 -52.5625 29.375 C-53.36278184 24.23901398 -53.09489912 20.46767964 -50 16.1875 C-48.88917587 14.88595433 -47.74317755 13.61352812 -46.5625 12.375 C-46.05589844 11.84003906 -45.54929687 11.30507812 -45.02734375 10.75390625 C-34.28833707 0.59538642 -14.13970599 -6.44969045 0 0 Z " fill="#FCFEFE" transform="translate(304.5625,113.625)"/>
</svg>
